<svg width="25" height="20" viewBox="0 0 25 20" fill="none" xmlns="http://www.w3.org/2000/svg">
<path d="M2.92345 11.4538H22.94C23.765 11.4538 24.4338 10.7851 24.4338 9.96007C24.4338 9.13507 23.765 8.46631 22.94 8.46631H2.92345C2.09845 8.46631 1.42969 9.13507 1.42969 9.96007C1.42964 10.7851 2.09845 11.4538 2.92345 11.4538Z" fill="white"/>
<path d="M14.4254 5.24432C13.9894 5.24432 13.6348 5.59898 13.6348 6.03496V7.05998H19.7538V6.03496C19.7538 5.59898 19.3991 5.24432 18.9631 5.24432H14.4254Z" fill="white"/>
<path d="M4.70217 6.03502C4.70217 4.82363 5.68767 3.83813 6.89906 3.83813H11.4368C12.0133 3.83813 12.5383 4.06163 12.9306 4.42613C13.3229 4.06163 13.8479 3.83813 14.4243 3.83813H18.9621C20.1735 3.83813 21.159 4.82363 21.159 6.03502V7.06004H23.4412V2.21691C23.4412 1.39191 22.7724 0.723145 21.9475 0.723145H3.91369C3.08869 0.723145 2.41992 1.39191 2.41992 2.21691V7.06004H4.70217V6.03502Z" fill="white"/>
<path d="M6.90002 5.24432C6.46403 5.24432 6.10938 5.59898 6.10938 6.03496V7.05998H12.2284V6.03496C12.2284 5.59898 11.8737 5.24432 11.4377 5.24432H6.90002Z" fill="white"/>
<path d="M0.931641 12.86V19.3296H2.33789V16.7657H23.5254V19.3296H24.9316V12.86H0.931641Z" fill="white"/>
</svg>
