<svg width="25" height="19" viewBox="0 0 25 19" fill="none" xmlns="http://www.w3.org/2000/svg">
<path d="M20.5523 7.25034C20.8332 7.25034 21.0608 7.02265 21.0608 6.74175V5.1103C21.0608 4.8294 20.8332 4.60172 20.5523 4.60172L19.8284 4.60612L17.4531 7.25034H20.5523Z" fill="white"/>
<path d="M5.30741 7.25017H8.43093L6.01448 4.60162H5.30741C5.02652 4.60162 4.79883 4.82931 4.79883 5.11021V6.74153C4.79883 7.02248 5.02652 7.25017 5.30741 7.25017Z" fill="white"/>
<path d="M13.2222 9.87292L17.9354 4.60172H7.92578L12.7164 9.87494C12.8522 10.0244 13.0876 10.0235 13.2222 9.87292Z" fill="white"/>
<path d="M14.5497 17.2909H13.6741V11.3723C13.4641 11.4935 13.2241 11.5598 12.9765 11.5608C12.9747 11.5608 12.9728 11.5608 12.971 11.5608C12.7216 11.5608 12.4795 11.4944 12.2678 11.3722V17.2909H11.3125C10.9242 17.2909 10.6094 17.6057 10.6094 17.9941C10.6094 18.3824 10.9242 18.6973 11.3125 18.6973H14.5498C14.9381 18.6973 15.2529 18.3824 15.2529 17.9941C15.2529 17.6057 14.9381 17.2909 14.5497 17.2909Z" fill="white"/>
<path d="M6.86133 9.20662H2.33799V0.87145C2.33799 0.483109 2.02316 0.168274 1.63482 0.168274C1.24648 0.168274 0.931641 0.483109 0.931641 0.87145V18.0504C0.931641 18.4387 1.24648 18.7535 1.63482 18.7535C2.02316 18.7535 2.33799 18.4387 2.33799 18.0504V12.798H7.45069V18.0504C7.45069 18.4387 7.76552 18.7535 8.15387 18.7535C8.54221 18.7535 8.85704 18.4387 8.85704 18.0504V11.2023C8.85704 10.1019 7.96176 9.20662 6.86133 9.20662Z" fill="white"/>
<path d="M24.2288 0.168274C23.8404 0.168274 23.5256 0.483109 23.5256 0.87145V9.20662H19.107C18.0066 9.20662 17.1113 10.1019 17.1113 11.2023V18.0504C17.1113 18.4387 17.4262 18.7535 17.8145 18.7535C18.2028 18.7535 18.5177 18.4387 18.5177 18.0504V12.7969H23.5256V18.0504C23.5256 18.4387 23.8405 18.7535 24.2288 18.7535C24.6171 18.7535 24.932 18.4387 24.932 18.0504V0.87145C24.9319 0.483109 24.6171 0.168274 24.2288 0.168274Z" fill="white"/>
</svg>
